<!DOCTYPE svg PUBLIC "-//W3C//DTD SVG 1.1//EN" "http://www.w3.org/Graphics/SVG/1.1/DTD/svg11.dtd">
<!-- Uploaded to: SVG Repo, www.svgrepo.com, Transformed by: SVG Repo Mixer Tools -->
<svg fill="#000000" height="256px" width="256px" version="1.1" id="Layer_1" xmlns="http://www.w3.org/2000/svg" xmlns:xlink="http://www.w3.org/1999/xlink" viewBox="-33 -33 396.00 396.00" xml:space="preserve" transform="rotate(0)">
<g id="SVGRepo_bgCarrier" stroke-width="0"/>
<g id="SVGRepo_tracerCarrier" stroke-linecap="round" stroke-linejoin="round" stroke="#CCCCCC" stroke-width="21.78"/>
<g id="SVGRepo_iconCarrier"> <g id="XMLID_2_"> <path id="XMLID_4_" d="M97.5,165c0-8.284-6.716-15-15-15h-60c-8.284,0-15,6.716-15,15s6.716,15,15,15h60 C90.784,180,97.5,173.284,97.5,165z"/> <path id="XMLID_5_" d="M307.5,150h-30c-8.284,0-15,6.716-15,15s6.716,15,15,15h30c8.284,0,15-6.716,15-15S315.784,150,307.5,150z"/> <path id="XMLID_6_" d="M172.5,90c8.284,0,15-6.716,15-15V15c0-8.284-6.716-15-15-15s-15,6.716-15,15v60 C157.5,83.284,164.216,90,172.5,90z"/> <path id="XMLID_7_" d="M172.501,240c-8.284,0-15,6.716-15,15v60c0,8.284,6.716,15,15,15c8.284,0,15-6.716,15-15v-60 C187.501,246.716,180.785,240,172.501,240z"/> <path id="XMLID_8_" d="M77.04,48.327c-5.856-5.858-15.354-5.857-21.213,0c-5.858,5.858-5.858,15.355,0,21.213l42.427,42.428 c2.929,2.929,6.768,4.394,10.606,4.394c3.838,0,7.678-1.465,10.606-4.393c5.858-5.858,5.858-15.355,0-21.213L77.04,48.327z"/> <path id="XMLID_9_" d="M246.746,218.034c-5.857-5.857-15.355-5.857-21.213,0c-5.858,5.858-5.857,15.355,0,21.213l42.428,42.426 c2.929,2.929,6.768,4.393,10.607,4.393c3.839,0,7.678-1.465,10.606-4.393c5.858-5.858,5.858-15.355,0-21.213L246.746,218.034z"/> <path id="XMLID_10_" d="M98.254,218.034L55.828,260.46c-5.858,5.858-5.858,15.355,0,21.213c2.929,2.929,6.768,4.393,10.607,4.393 c3.839,0,7.678-1.464,10.606-4.393l42.426-42.426c5.858-5.858,5.858-15.355,0-21.213 C113.609,212.176,104.111,212.176,98.254,218.034z"/> </g> </g>
</svg>