<svg xmlns="http://www.w3.org/2000/svg" width="16" height="16" fill="none" viewBox="0 0 16 16"><g clip-path="url(#clip0_1964_613)"><path stroke="#000" stroke-linecap="square" stroke-linejoin="round" stroke-width=".757" d="M14.5847 9.81458C14.8806 10.3325 15.0286 10.9661 15.0286 11.7153C15.0286 12.4275 14.8668 13.068 14.5431 13.6368C14.2193 14.2056 13.7083 14.6565 13.01 14.9895C12.3117 15.3225 11.403 15.489 10.2839 15.489L9.00195 11.0713"/><path fill="url(#paint0_linear_1964_613)" d="M9.5 6.5L9.193 6.14786L7.16081 7.27735H6.40234V8.77483H7.16081L9.5 6.5Z"/><circle cx="1.713" cy="1.262" r="1" fill="#0B6720"/><path fill="#0B6720" d="M12.5646 1.79544L12.2121 2.45747L12.2158 2.45943L12.5646 1.79544ZM14.0005 3.16201L13.3429 3.52263L13.3441 3.52487L14.0005 3.16201ZM14.1461 6.56802L13.488 6.20834L13.4848 6.21429L14.1461 6.56802ZM13.2999 7.51144L12.8143 6.93984C12.8082 6.94503 12.8022 6.95031 12.7962 6.95569L13.2999 7.51144ZM12.736 8.02246L12.2323 7.46671L11.5817 8.05632L12.2658 8.60678L12.736 8.02246ZM13.4802 8.62135L13.01 9.20568L13.015 9.2096L13.4802 8.62135ZM13.5011 8.6379L13.0359 9.22615L13.0359 9.22618L13.5011 8.6379ZM14.5832 9.8145L13.9086 10.1424C13.9159 10.1574 13.9237 10.1721 13.932 10.1866L14.5832 9.8145ZM14.5415 13.6367L13.8897 13.2658L13.8897 13.2658L14.5415 13.6367ZM13.0085 14.9894L12.6857 14.3124L12.6857 14.3124L13.0085 14.9894ZM10.2824 15.4889L9.56207 15.6979C9.65507 16.0184 9.94864 16.2389 10.2824 16.2389V15.4889ZM6.86947 1.2821V0.532104H6.33752L6.16165 1.03413L6.86947 1.2821ZM9.72073 10.8622L9.51171 10.1419L8.07114 10.5599L8.28015 11.2802L9.72073 10.8622ZM1.71289 15.4889H0.962891C0.962891 15.8516 1.2224 16.1623 1.57927 16.2269C1.93615 16.2915 2.28812 16.0915 2.41528 15.7518L1.71289 15.4889ZM2.46289 3.16201V2.41201H0.962891V3.16201H2.46289ZM6.00104 8.77477H6.75104V7.27477H6.00104V8.77477ZM10.1159 2.0321C11.0247 2.0321 11.7097 2.18999 12.2121 2.45746L12.917 1.13341C12.1338 0.71644 11.1863 0.532104 10.1159 0.532104V2.0321ZM12.2158 2.45943C12.743 2.73631 13.107 3.0925 13.3429 3.52262L14.6581 2.80139C14.265 2.08461 13.6717 1.52975 12.9133 1.13144L12.2158 2.45943ZM13.3441 3.52487C13.593 3.97515 13.7222 4.48021 13.7222 5.05578H15.2222C15.2222 4.24397 15.0368 3.48651 14.6568 2.79914L13.3441 3.52487ZM13.7222 5.05578C13.7222 5.58234 13.6278 5.95258 13.488 6.20835L14.8043 6.9277C15.0992 6.38804 15.2222 5.75011 15.2222 5.05578H13.7222ZM13.4848 6.21429C13.3474 6.47113 13.1393 6.6638 12.8143 6.93984L13.7854 8.08305C14.0984 7.8172 14.5194 7.46035 14.8075 6.92176L13.4848 6.21429ZM12.7962 6.95569L12.2323 7.46671L13.2396 8.57821L13.8035 8.06719L12.7962 6.95569ZM12.2658 8.60678L13.01 9.20566L13.9504 8.03703L13.2061 7.43814L12.2658 8.60678ZM13.015 9.2096L13.0359 9.22615L13.9664 8.04964L13.9455 8.03309L13.015 9.2096ZM13.0359 9.22618C13.4403 9.54597 13.7413 9.7982 13.9086 10.1424L15.2577 9.48657C14.9181 8.78805 14.334 8.34036 13.9664 8.04962L13.0359 9.22618ZM13.932 10.1866C14.1486 10.5657 14.2771 11.0636 14.2771 11.7152H15.7771C15.7771 10.8684 15.6096 10.0992 15.2343 9.4424L13.932 10.1866ZM14.2771 11.7152C14.2771 12.3091 14.1435 12.8198 13.8897 13.2658L15.1934 14.0077C15.587 13.316 15.7771 12.5457 15.7771 11.7152H14.2771ZM13.8897 13.2658C13.6548 13.6785 13.2714 14.0332 12.6857 14.3124L13.3313 15.6664C14.1422 15.2798 14.7808 14.7326 15.1934 14.0077L13.8897 13.2658ZM12.6857 14.3124C12.1229 14.5808 11.336 14.7389 10.2824 14.7389V16.2389C11.467 16.2389 12.4975 16.064 13.3313 15.6664L12.6857 14.3124ZM6.86947 2.0321H10.1159V0.532104H6.86947V2.0321ZM11.0026 15.2799L9.72073 10.8622L8.28015 11.2802L9.56207 15.6979L11.0026 15.2799ZM2.46289 15.4889V3.16201H0.962891V15.4889H2.46289ZM6.16165 1.03413L3.79944 7.7768L5.21508 8.27275L7.57729 1.53008L6.16165 1.03413ZM3.80487 7.76182L1.0105 15.2259L2.41528 15.7518L5.20966 8.28773L3.80487 7.76182ZM4.50726 8.77477H6.00104V7.27477H4.50726V8.77477Z"/><path stroke="#0B6720" stroke-width=".938" d="M11.4651 4.53281C11.0495 4.07868 10.5486 3.71086 9.9908 3.45035C9.43304 3.18984 8.82943 3.04174 8.21444 3.0145C7.59945 2.98727 6.98511 3.08143 6.40651 3.29162"/><path stroke="#0B6720" stroke-opacity=".3" d="M9.60758 12.1036C10.1862 11.8934 10.7177 11.5713 11.1718 11.1557C11.626 10.7401 11.9938 10.2391 12.2543 9.68136C12.5148 9.12361 12.6629 8.52 12.6901 7.90501C12.7174 7.29001 12.6232 6.67567 12.413 6.09707C12.2028 5.51847 11.8808 4.98693 11.4651 4.53281C11.0495 4.07868 10.5486 3.71086 9.9908 3.45035C9.43304 3.18984 8.82943 3.04174 8.21444 3.0145C7.59945 2.98727 6.98511 3.08143 6.40651 3.29162"/></g><defs><linearGradient id="paint0_linear_1964_613" x1="8.533" x2="6.8" y1="6.781" y2="8.027" gradientUnits="userSpaceOnUse"><stop stop-color="#0B6720" stop-opacity=".3"/><stop offset="1" stop-color="#0B6720"/></linearGradient><clipPath id="clip0_1964_613"><rect width="16" height="16" fill="#fff"/></clipPath></defs></svg>