<svg width="886" height="886" viewBox="0 0 886 886" fill="none" xmlns="http://www.w3.org/2000/svg">
<path d="M807.594 543.481C823.984 572.163 832.178 607.247 832.178 648.733C832.178 688.17 823.215 723.638 805.29 755.137C787.364 786.636 759.067 811.604 720.398 830.043C681.73 848.481 631.409 857.7 569.437 857.7L498.451 613.072" stroke="black" stroke-width="41.904" stroke-linecap="square" stroke-linejoin="round"/>
<path d="M648.139 299.857L658.08 325.964" stroke="#0B6720" stroke-opacity="0.3" stroke-width="44.6977" stroke-linejoin="bevel"/>
<path d="M661.758 344.696L666.806 372.172" stroke="#0B6720" stroke-opacity="0.3" stroke-width="50.2849" stroke-linejoin="bevel"/>
<path d="M668.07 389.342L668.845 417.267" stroke="#0B6720" stroke-opacity="0.3" stroke-width="55.8721" stroke-linejoin="bevel"/>
<path d="M667.221 436.885L662.772 464.464" stroke="#0B6720" stroke-opacity="0.3" stroke-width="61.4593" stroke-linejoin="bevel"/>
<path d="M659.238 481.582L649.47 507.755" stroke="#0B6720" stroke-opacity="0.3" stroke-width="67.0465" stroke-linejoin="bevel"/>
<path d="M640.096 520.693L624.985 544.189" stroke="#0B6720" stroke-opacity="0.3" stroke-width="72.6337" stroke-linejoin="bevel"/>
<path d="M614.299 562.597L595.625 583.374" stroke="#0B6720" stroke-opacity="0.3" stroke-width="78.2209" stroke-linejoin="bevel"/>
<path d="M582.613 593.327L560.877 610.875" stroke="#0B6720" stroke-opacity="0.3" stroke-width="83.8081" stroke-linejoin="bevel"/>
<path d="M542.068 621.263L518.067 635.558" stroke="#0B6720" stroke-opacity="0.3" stroke-width="89.3953" stroke-linejoin="bevel"/>
<path d="M352 151.419L379.836 149.056" stroke="#0B5D1E" stroke-width="5.58721" stroke-linejoin="bevel"/>
<path d="M396.502 147H424.438" stroke="#0B5D1E" stroke-width="11.1744" stroke-linejoin="bevel"/>
<path d="M441.096 147.558L468.71 151.784" stroke="#0B5D1E" stroke-width="11.1744" stroke-linejoin="bevel"/>
<path d="M482.994 155.691L509.534 164.411" stroke="#0B5D1E" stroke-width="16.7616" stroke-linejoin="bevel"/>
<path d="M527.801 172.142L552.703 184.803" stroke="#0B5D1E" stroke-width="22.3488" stroke-linejoin="bevel"/>
<path d="M564.117 194.491L586.581 211.099" stroke="#0B5D1E" stroke-width="27.936" stroke-linejoin="bevel"/>
<path d="M597.641 225.221L617.355 245.014" stroke="#0B5D1E" stroke-width="33.5232" stroke-linejoin="bevel"/>
<path d="M625.576 261.538L641.522 284.476" stroke="#0B5D1E" stroke-width="39.1104" stroke-linejoin="bevel"/>
<circle cx="94.904" cy="69.904" r="41.904" fill="#0B6720"/>
<path d="M695.813 99.4254L685.24 119.286C685.277 119.306 685.314 119.326 685.352 119.345L695.813 99.4254ZM775.327 175.099L755.599 185.918C755.611 185.94 755.623 185.963 755.636 185.985L775.327 175.099ZM783.393 363.707L763.65 352.917C763.617 352.977 763.585 353.036 763.553 353.095L783.393 363.707ZM736.531 415.949L721.964 398.801C721.781 398.957 721.6 399.115 721.422 399.277L736.531 415.949ZM705.305 444.247L690.196 427.574L670.677 445.263L691.199 461.776L705.305 444.247ZM746.518 477.41L732.412 494.94C732.461 494.979 732.511 495.019 732.56 495.058L746.518 477.41ZM747.677 478.327L733.719 495.974L733.72 495.975L747.677 478.327ZM807.593 543.481L787.358 553.319C787.577 553.768 787.81 554.21 788.058 554.644L807.593 543.481ZM720.397 830.042L710.713 809.733L710.713 809.733L720.397 830.042ZM569.437 857.7L547.833 863.988C550.629 873.594 559.432 880.2 569.437 880.2V857.7ZM380.448 70.9996V48.4996H364.489L359.213 63.5604L380.448 70.9996ZM520.103 607.712L513.815 586.108L470.608 598.685L476.897 620.288L520.103 607.712ZM94.9023 857.7H72.4023C72.4023 868.58 80.1877 877.902 90.8939 879.84C101.6 881.778 112.159 875.778 115.974 865.589L94.9023 857.7ZM117.402 175.099V152.599H72.4023V175.099H117.402ZM332.359 466.875H354.859V421.875H332.359V466.875ZM560.218 93.4996C612.595 93.4996 653.857 102.578 685.24 119.286L706.387 79.5646C666.579 58.3716 617.444 48.4996 560.218 48.4996V93.4996ZM685.352 119.345C717.479 136.218 740.543 158.463 755.599 185.918L795.055 164.281C775.284 128.226 745.339 100.021 706.275 79.5054L685.352 119.345ZM755.636 185.985C771.083 213.927 778.948 245.097 778.948 279.967H823.948C823.948 238.01 814.398 199.268 795.018 164.213L755.636 185.985ZM778.948 279.967C778.948 311.254 773.358 335.152 763.65 352.917L803.137 374.498C817.5 348.216 823.948 316.287 823.948 279.967H778.948ZM763.553 353.095C754.034 370.893 739.806 383.645 721.964 398.801L751.097 433.097C768.579 418.247 789.193 400.569 803.234 374.319L763.553 353.095ZM721.422 399.277L690.196 427.574L720.413 460.919L751.639 432.622L721.422 399.277ZM691.199 461.776L732.412 494.94L760.623 459.881L719.41 426.717L691.199 461.776ZM732.56 495.058L733.719 495.974L761.634 460.679L760.475 459.763L732.56 495.058ZM733.72 495.975C755.647 513.315 775.906 529.762 787.358 553.319L827.829 533.643C811.209 499.458 782.458 477.147 761.633 460.678L733.72 495.975ZM788.058 554.644C802.067 579.16 809.677 610.175 809.677 648.733H854.677C854.677 604.318 845.898 565.165 827.129 532.318L788.058 554.644ZM809.677 648.733C809.677 684.622 801.561 716.196 785.734 744.008L824.844 766.266C844.867 731.08 854.677 691.718 854.677 648.733H809.677ZM785.734 744.008C770.473 770.824 746.005 792.905 710.713 809.733L730.081 850.352C772.127 830.303 804.253 802.447 824.844 766.266L785.734 744.008ZM710.713 809.733C676.11 826.233 629.442 835.2 569.437 835.2V880.2C633.375 880.2 687.347 870.729 730.081 850.352L710.713 809.733ZM380.448 93.4996H560.218V48.4996H380.448V93.4996ZM591.04 851.412L520.103 607.712L476.897 620.288L547.833 863.988L591.04 851.412ZM117.402 857.7V175.099H72.4023V857.7H117.402ZM359.213 63.5604L228.406 436.936L270.875 451.814L401.682 78.4389L359.213 63.5604ZM228.569 436.486L73.8306 849.811L115.974 865.589L270.712 452.264L228.569 436.486ZM249.641 466.875H332.359V421.875H249.641V466.875Z" fill="#0B6720"/>
<path d="M482 382.5L465 363L396.5 421.871H354.5V466.868H396.5L482 382.5Z" fill="url(#paint0_linear_1964_583)"/>
<defs>
<linearGradient id="paint0_linear_1964_583" x1="472.5" y1="375.5" x2="376.5" y2="444.5" gradientUnits="userSpaceOnUse">
<stop stop-color="#9BB7A2"/>
<stop offset="1" stop-color="#0B6720"/>
</linearGradient>
</defs>
</svg>
