<?xml version="1.0" ?><svg height="72" viewBox="0 0 72 72" width="72" xmlns="http://www.w3.org/2000/svg"><g fill="none" fill-rule="evenodd"><path d="M36,72 L36,72 C55.882251,72 72,55.882251 72,36 L72,36 C72,16.117749 55.882251,-3.65231026e-15 36,0 L36,0 C16.117749,3.65231026e-15 -2.4348735e-15,16.117749 0,36 L0,36 C2.4348735e-15,55.882251 16.117749,72 36,72 Z" fill="#FF5700"/><path d="M43.14,42.3258026 C41.346,42.3258026 39.8385,40.8840666 39.8385,39.1064209 C39.8385,37.3287753 41.346,35.8394768 43.14,35.8394768 C44.934,35.8394768 46.389,37.3287753 46.389,39.1064209 C46.389,40.8840666 44.934,42.3258026 43.14,42.3258026 M43.902,48.5743163 C42.231,50.2285969 39.654,51.0326992 36.024,51.0326992 C36.0165,51.0326992 36.0075,51.0312128 35.9985,51.0312128 C35.991,51.0312128 35.982,51.0326992 35.973,51.0326992 C32.343,51.0326992 29.7675,50.2285969 28.098,48.5743163 C27.585,48.0659929 27.585,47.2440547 28.098,46.7372176 C28.6095,46.2303805 29.439,46.2303805 29.952,46.7372176 C31.104,47.8787158 33.0735,48.4346017 35.973,48.4346017 C35.982,48.4346017 35.991,48.436088 35.9985,48.436088 C36.0075,48.436088 36.0165,48.4346017 36.024,48.4346017 C38.9235,48.4346017 40.8945,47.8787158 42.048,46.7372176 C42.561,46.2288942 43.3905,46.2303805 43.902,46.7372176 C44.4135,47.245541 44.4135,48.0674792 43.902,48.5743163 M25.611,39.1064209 C25.611,37.3302616 27.1155,35.8394768 28.908,35.8394768 C30.702,35.8394768 32.157,37.3302616 32.157,39.1064209 C32.157,40.8840666 30.702,42.3258026 28.908,42.3258026 C27.1155,42.3258026 25.611,40.8840666 25.611,39.1064209 M51.996,18.5980975 C53.211,18.5980975 54.1995,19.5775862 54.1995,20.7800238 C54.1995,21.9839477 53.211,22.9634364 51.996,22.9634364 C50.781,22.9634364 49.7925,21.9839477 49.7925,20.7800238 C49.7925,19.5775862 50.781,18.5980975 51.996,18.5980975 M60,35.5704518 C60,32.4179548 57.4125,29.8540428 54.231,29.8540428 C52.854,29.8540428 51.5895,30.3356124 50.5965,31.136742 C47.079,28.9458977 42.615,27.6260404 37.83,27.3466112 L40.326,19.5270511 L47.1855,21.127824 C47.3655,23.6025565 49.4535,25.5615339 51.996,25.5615339 C54.6555,25.5615339 56.82,23.4167658 56.82,20.7800238 C56.82,18.1447681 54.6555,16 51.996,16 C50.136,16 48.519,17.049346 47.7135,18.5817479 L39.7425,16.7223543 C39.075,16.5662901 38.4,16.9467895 38.193,17.5948276 L35.094,27.3005351 C29.9385,27.4253864 25.092,28.7497027 21.3165,31.068371 C20.337,30.3088585 19.1055,29.8540428 17.769,29.8540428 C14.5875,29.8540428 12,32.4179548 12,35.5704518 C12,37.519025 12.99,39.2416766 14.4975,40.2731867 C14.4345,40.7265161 14.4015,41.1828181 14.4015,41.6450654 C14.4015,45.5853151 16.713,49.2505945 20.91,51.9646254 C24.933,54.5671819 30.258,56 35.9025,56 C41.547,56 46.872,54.5671819 50.895,51.9646254 C55.092,49.2505945 57.4035,45.5853151 57.4035,41.6450654 C57.4035,41.2244352 57.375,40.8067776 57.3225,40.3920927 C58.9305,39.3769322 60,37.5948276 60,35.5704518" fill="#FFF"/></g></svg>